# xmcd CD database file
#
# Track frame offsets:
#	150
#	12226
#	27196
#	41221
#	53857
#	73780
#	94575
#	108950
#	123513
#	137131
#	157109
#
# Disc length: 2292 seconds
#
# Revision: 0
# Processed by: cddbd v1.5.2PL0 Copyright (c) Steve Scherf et al.
# Submitted via: CDex 1.51
#
DISCID=9608f20b
DTITLE=Kelsey Waldon - I've Got A Way
DYEAR=2016
DGENRE=Country
TTITLE0=Dirty Old Town
TTITLE1=All By Myself
TTITLE2=You Can Have It
TTITLE3=False King
TTITLE4=Don't Hurt The Ones (Who've Loved You The Most)
TTITLE5=I'd Rather Go On
TTITLE6=There Must Be A Someone
TTITLE7=Let's Pretend
TTITLE8=Life Moves Slow
TTITLE9=Travelin' Down This Lonesome Road
TTITLE10=The Heartbreak
EXTD=YEAR: 2016
EXTT0=
EXTT1=
EXTT2=
EXTT3=
EXTT4=
EXTT5=
EXTT6=
EXTT7=
EXTT8=
EXTT9=
EXTT10=
PLAYORDER=
